<?xml version="1.0" standalone="no"?>
<!DOCTYPE svg PUBLIC "-//W3C//DTD SVG 20010904//EN"
 "http://www.w3.org/TR/2001/REC-SVG-20010904/DTD/svg10.dtd">
<svg version="1.0" xmlns="http://www.w3.org/2000/svg"
 width="96.000000pt" height="96.000000pt" viewBox="0 0 96.000000 96.000000"
 preserveAspectRatio="xMidYMid meet">

<g transform="translate(0.000000,96.000000) scale(0.100000,-0.100000)"
fill="#000000" stroke="none">
<path d="M387 856 c-79 -28 -127 -62 -167 -118 -37 -51 -56 -135 -40 -182 14
-44 28 -55 73 -58 45 -4 46 -15 7 -53 -40 -39 -38 -74 7 -95 42 -20 42 -30 1
-49 -54 -26 -48 -70 10 -71 l23 0 -20 -26 c-22 -28 -19 -40 12 -63 10 -7 22
-24 28 -38 5 -13 13 -21 19 -18 18 11 11 45 -16 72 l-25 25 25 27 c31 32 20
51 -29 51 l-30 0 33 20 c46 28 51 48 18 77 -15 12 -34 23 -42 23 -24 0 -16 25
16 48 17 13 30 29 30 36 0 20 25 37 44 30 12 -4 13 -10 6 -24 -17 -32 -11 -63
20 -110 35 -53 36 -59 10 -110 -26 -52 -26 -72 2 -68 16 2 27 18 44 63 29 76
29 85 -1 129 -28 41 -31 63 -13 101 8 18 19 25 40 25 l30 0 -21 -34 c-30 -48
-27 -71 14 -96 38 -23 43 -44 20 -74 -20 -26 -19 -55 2 -78 14 -16 15 -23 4
-53 -13 -38 -2 -75 24 -75 17 0 20 26 5 35 -7 4 -7 12 0 25 15 28 12 66 -6 85
-16 15 -15 19 5 55 25 46 20 64 -31 103 l-32 25 28 40 c28 41 75 67 60 34 -21
-48 -16 -80 20 -132 35 -51 35 -52 20 -88 -21 -51 -21 -55 -3 -59 51 -12 64
77 24 157 -32 63 -31 73 5 112 l29 33 1 -38 c0 -32 5 -41 30 -55 25 -14 29
-22 25 -43 -4 -18 -1 -28 9 -32 8 -3 16 -18 18 -33 2 -15 9 -29 15 -32 21 -6
26 25 9 59 -9 18 -16 43 -16 56 0 16 -10 29 -30 41 -41 23 -42 62 -1 62 42 0
52 20 54 107 1 68 -2 84 -25 123 -27 46 -92 100 -151 125 -66 27 -146 28 -220
1z m212 -32 c47 -19 118 -79 136 -114 8 -16 15 -55 15 -88 l0 -60 -242 -4
c-134 -2 -256 -2 -272 0 -28 5 -28 5 -24 62 7 100 69 165 203 212 55 20 124
17 184 -8z"/>
<path d="M302 740 c-42 -30 -50 -44 -33 -54 11 -7 102 64 95 75 -8 14 -18 11
-62 -21z"/>
</g>
</svg>
